# Blender v2.75 (sub 0) OBJ File: 'House.blend'
# www.blender.org
mtllib House.mtl
o Plane_Plane.001
v -5.000001 0.000000 4.999999
v 4.999999 0.000000 5.000001
v -4.999999 0.000000 -5.000001
v 5.000001 0.000000 -4.999999
v -5.000001 5.000000 4.999999
v 4.999999 5.000000 5.000001
v -4.999999 5.000000 -5.000001
v 5.000001 5.000000 -4.999999
v -0.000002 8.000000 5.000000
v 0.000002 8.000000 -5.000000
v -1.000002 0.000000 5.000000
v -1.000002 3.000000 5.000000
v 0.999999 3.000000 5.000000
v 0.999999 0.000000 5.000000
vn 0.000000 0.000000 -1.000000
vn 1.000000 0.000000 0.000000
vn -0.000000 0.000000 1.000000
vn -1.000000 0.000000 -0.000000
vn 0.514500 0.857500 0.000000
vn -0.514500 0.857500 -0.000000
usemtl None
s off
f 12//1 13//1 14//1 11//1
f 7//1 10//1 8//1
f 4//1 3//1 7//1 8//1
f 2//2 4//2 8//2 6//2
f 6//3 9//3 5//3
f 3//4 1//4 5//4 7//4
f 8//5 10//5 9//5 6//5
f 7//6 5//6 9//6 10//6
l 1 11
l 2 14
