# Blender v2.75 (sub 0) OBJ File: 'SUV.blend'
# www.blender.org
mtllib SUV.mtl
o Plane
v -0.807784 0.345883 -2.685710
v -0.807784 0.345883 2.389522
v -0.807784 1.174322 -2.685710
v -0.807784 2.007157 2.389522
v -0.807784 0.345883 -1.739269
v -0.807784 0.345883 -0.731898
v -0.807784 1.174322 -1.739269
v -0.807784 2.007157 -0.731898
v -0.827936 0.345883 -1.645060
v -1.035468 0.345883 -1.645060
v -0.827936 0.213517 -1.671389
v -1.035468 0.213517 -1.671389
v -0.827936 0.101304 -1.746368
v -1.035468 0.101304 -1.746368
v -0.827936 0.026325 -1.858582
v -1.035468 0.026325 -1.858582
v -0.827936 0.000002 -1.990947
v -1.035468 0.000002 -1.990947
v -0.827936 0.026325 -2.123312
v -1.035468 0.026325 -2.123312
v -0.827936 0.101304 -2.235526
v -1.035468 0.101304 -2.235526
v -0.827936 0.213517 -2.310505
v -1.035468 0.213517 -2.310505
v -0.827936 0.345883 -2.336834
v -1.035468 0.345883 -2.336834
v -0.827936 0.478248 -2.310505
v -1.035468 0.478248 -2.310505
v -0.827936 0.590461 -2.235526
v -1.035468 0.590461 -2.235526
v -0.827936 0.665440 -2.123312
v -1.035468 0.665440 -2.123312
v -0.827936 0.691769 -1.990947
v -1.035468 0.691769 -1.990947
v -0.827936 0.665440 -1.858582
v -1.035468 0.665440 -1.858582
v -0.827936 0.590461 -1.746368
v -1.035468 0.590461 -1.746368
v -0.827936 0.478248 -1.671389
v -1.035468 0.478248 -1.671389
v -1.035468 0.478248 1.836961
v -0.827936 0.478248 1.836961
v -1.035468 0.590461 1.761983
v -0.827936 0.590461 1.761983
v -1.035468 0.665440 1.649769
v -0.827936 0.665440 1.649769
v -1.035468 0.691769 1.517403
v -0.827936 0.691769 1.517403
v -1.035468 0.665440 1.385038
v -0.827936 0.665440 1.385038
v -1.035468 0.590461 1.272824
v -0.827936 0.590461 1.272824
v -1.035468 0.478248 1.197846
v -0.827936 0.478248 1.197846
v -1.035468 0.345883 1.171517
v -0.827936 0.345883 1.171517
v -1.035468 0.213517 1.197846
v -0.827936 0.213517 1.197846
v -1.035468 0.101304 1.272825
v -0.827936 0.101304 1.272825
v -1.035468 0.026325 1.385038
v -0.827936 0.026325 1.385038
v -1.035468 -0.000002 1.517403
v -0.827936 -0.000002 1.517403
v -1.035468 0.026325 1.649768
v -0.827936 0.026325 1.649768
v -1.035468 0.101304 1.761982
v -0.827936 0.101304 1.761982
v -1.035468 0.213517 1.836961
v -0.827936 0.213517 1.836961
v -1.035468 0.345883 1.863290
v -0.827936 0.345883 1.863290
v 0.807784 0.345883 -2.685710
v 0.807784 0.345883 2.389522
v 0.807784 1.174322 -2.685710
v 0.807784 2.007157 2.389522
v 0.807784 0.345883 -1.739269
v 0.807784 0.345883 -0.731898
v 0.807784 1.174322 -1.739269
v 0.807784 2.007157 -0.731898
v 0.827936 0.345883 -1.645060
v 1.035468 0.345883 -1.645060
v 0.827936 0.213517 -1.671389
v 1.035468 0.213517 -1.671389
v 0.827936 0.101304 -1.746368
v 1.035468 0.101304 -1.746368
v 0.827936 0.026325 -1.858582
v 1.035468 0.026325 -1.858582
v 0.827936 0.000002 -1.990947
v 1.035468 0.000002 -1.990947
v 0.827936 0.026325 -2.123312
v 1.035468 0.026325 -2.123312
v 0.827936 0.101304 -2.235526
v 1.035468 0.101304 -2.235526
v 0.827936 0.213517 -2.310505
v 1.035468 0.213517 -2.310505
v 0.827936 0.345883 -2.336834
v 1.035468 0.345883 -2.336834
v 0.827936 0.478248 -2.310505
v 1.035468 0.478248 -2.310505
v 0.827936 0.590461 -2.235526
v 1.035468 0.590461 -2.235526
v 0.827936 0.665440 -2.123312
v 1.035468 0.665440 -2.123312
v 0.827936 0.691769 -1.990947
v 1.035468 0.691769 -1.990947
v 0.827936 0.665440 -1.858582
v 1.035468 0.665440 -1.858582
v 0.827936 0.590461 -1.746368
v 1.035468 0.590461 -1.746368
v 0.827936 0.478248 -1.671389
v 1.035468 0.478248 -1.671389
v 1.035468 0.478248 1.836961
v 0.827936 0.478248 1.836961
v 1.035468 0.590461 1.761983
v 0.827936 0.590461 1.761983
v 1.035468 0.665440 1.649769
v 0.827936 0.665440 1.649769
v 1.035468 0.691769 1.517403
v 0.827936 0.691769 1.517403
v 1.035468 0.665440 1.385038
v 0.827936 0.665440 1.385038
v 1.035468 0.590461 1.272824
v 0.827936 0.590461 1.272824
v 1.035468 0.478248 1.197846
v 0.827936 0.478248 1.197846
v 1.035468 0.345883 1.171517
v 0.827936 0.345883 1.171517
v 1.035468 0.213517 1.197846
v 0.827936 0.213517 1.197846
v 1.035468 0.101304 1.272825
v 0.827936 0.101304 1.272825
v 1.035468 0.026325 1.385038
v 0.827936 0.026325 1.385038
v 1.035468 -0.000002 1.517403
v 0.827936 -0.000002 1.517403
v 1.035468 0.026325 1.649768
v 0.827936 0.026325 1.649768
v 1.035468 0.101304 1.761982
v 0.827936 0.101304 1.761982
v 1.035468 0.213517 1.836961
v 0.827936 0.213517 1.836961
v 1.035468 0.345883 1.863290
v 0.827936 0.345883 1.863290
vn -1.000000 0.000000 0.000000
vn 0.000000 0.000000 1.000000
vn 0.000000 0.770700 -0.637200
vn -0.000000 -0.195100 0.980800
vn -0.000000 -0.555600 0.831500
vn 0.000000 -0.831500 0.555600
vn 0.000000 -0.980800 0.195000
vn 0.000000 -0.980800 -0.195000
vn 0.000000 -0.831500 -0.555600
vn 0.000000 -0.555600 -0.831500
vn -0.000000 -0.195100 -0.980800
vn 0.000000 0.195100 -0.980800
vn 0.000000 0.555600 -0.831500
vn 0.000000 0.831500 -0.555600
vn 0.000000 0.980800 -0.195100
vn 0.000000 0.980800 0.195100
vn 0.000000 0.831500 0.555600
vn 0.000000 0.555600 0.831500
vn 0.000000 0.195100 0.980800
vn 0.000000 -0.980800 -0.195100
vn 0.000000 -0.980800 0.195100
vn 1.000000 0.000000 -0.000000
vn 0.000000 1.000000 0.000000
vn 0.000000 -1.000000 0.000000
vn 0.000000 0.000000 -1.000000
usemtl None
s off
f 6//1 2//1 4//1 8//1
f 1//1 5//1 7//1 3//1
f 5//1 6//1 8//1 7//1
f 74//2 76//2 4//2 2//2
f 8//3 80//3 79//3 7//3
f 9//4 10//4 12//4 11//4
f 11//5 12//5 14//5 13//5
f 13//6 14//6 16//6 15//6
f 15//7 16//7 18//7 17//7
f 17//8 18//8 20//8 19//8
f 19//9 20//9 22//9 21//9
f 21//10 22//10 24//10 23//10
f 23//11 24//11 26//11 25//11
f 25//12 26//12 28//12 27//12
f 27//13 28//13 30//13 29//13
f 29//14 30//14 32//14 31//14
f 31//15 32//15 34//15 33//15
f 33//16 34//16 36//16 35//16
f 35//17 36//17 38//17 37//17
f 37//18 38//18 40//18 39//18
f 39//19 40//19 10//19 9//19
f 42//19 41//19 71//19 72//19
f 46//17 45//17 43//17 44//17
f 48//16 47//16 45//16 46//16
f 50//15 49//15 47//15 48//15
f 52//14 51//14 49//14 50//14
f 54//13 53//13 51//13 52//13
f 56//12 55//12 53//12 54//12
f 58//11 57//11 55//11 56//11
f 60//10 59//10 57//10 58//10
f 62//9 61//9 59//9 60//9
f 64//20 63//20 61//20 62//20
f 66//21 65//21 63//21 64//21
f 68//6 67//6 65//6 66//6
f 70//5 69//5 67//5 68//5
f 72//4 71//4 69//4 70//4
f 44//18 43//18 41//18 42//18
f 78//22 80//22 76//22 74//22
f 73//22 75//22 79//22 77//22
f 77//22 79//22 80//22 78//22
f 4//23 76//23 80//23 8//23
f 7//23 79//23 75//23 3//23
f 81//4 83//4 84//4 82//4
f 83//5 85//5 86//5 84//5
f 85//6 87//6 88//6 86//6
f 87//7 89//7 90//7 88//7
f 89//8 91//8 92//8 90//8
f 91//9 93//9 94//9 92//9
f 93//10 95//10 96//10 94//10
f 95//11 97//11 98//11 96//11
f 97//12 99//12 100//12 98//12
f 99//13 101//13 102//13 100//13
f 101//14 103//14 104//14 102//14
f 103//15 105//15 106//15 104//15
f 105//16 107//16 108//16 106//16
f 107//17 109//17 110//17 108//17
f 109//18 111//18 112//18 110//18
f 111//19 81//19 82//19 112//19
f 114//19 144//19 143//19 113//19
f 118//17 116//17 115//17 117//17
f 120//16 118//16 117//16 119//16
f 122//15 120//15 119//15 121//15
f 124//14 122//14 121//14 123//14
f 126//13 124//13 123//13 125//13
f 128//12 126//12 125//12 127//12
f 130//11 128//11 127//11 129//11
f 132//10 130//10 129//10 131//10
f 134//9 132//9 131//9 133//9
f 136//20 134//20 133//20 135//20
f 138//21 136//21 135//21 137//21
f 140//6 138//6 137//6 139//6
f 142//5 140//5 139//5 141//5
f 144//4 142//4 141//4 143//4
f 116//18 114//18 113//18 115//18
f 78//24 74//24 2//24 6//24
f 77//24 78//24 6//24 5//24
f 73//24 77//24 5//24 1//24
f 75//25 73//25 1//25 3//25
